<?xml version="1.0" encoding="UTF-8" standalone="no"?>
<!-- Created with Inkscape (http://www.inkscape.org/) -->

<svg
   xmlns:dc="http://purl.org/dc/elements/1.1/"
   xmlns:cc="http://creativecommons.org/ns#"
   xmlns:rdf="http://www.w3.org/1999/02/22-rdf-syntax-ns#"
   xmlns:svg="http://www.w3.org/2000/svg"
   xmlns="http://www.w3.org/2000/svg"
   xmlns:sodipodi="http://sodipodi.sourceforge.net/DTD/sodipodi-0.dtd"
   xmlns:inkscape="http://www.inkscape.org/namespaces/inkscape"
   width="12.418836mm"
   height="12.418131mm"
   viewBox="0 0 44.003748 44.001251"
   id="svg17771"
   version="1.1"
   inkscape:version="0.91 r13725"
   sodipodi:docname="star6.svg">
  <defs
     id="defs17773" />
  <sodipodi:namedview
     id="base"
     pagecolor="#ffffff"
     bordercolor="#666666"
     borderopacity="1.0"
     inkscape:pageopacity="0.0"
     inkscape:pageshadow="2"
     inkscape:zoom="0.35"
     inkscape:cx="261.28759"
     inkscape:cy="256.28634"
     inkscape:document-units="px"
     inkscape:current-layer="layer1"
     showgrid="false"
     inkscape:window-width="1366"
     inkscape:window-height="709"
     inkscape:window-x="0"
     inkscape:window-y="0"
     inkscape:window-maximized="1"
     fit-margin-top="0"
     fit-margin-left="0"
     fit-margin-right="0"
     fit-margin-bottom="0" />
  <metadata
     id="metadata17776">
    <rdf:RDF>
      <cc:Work
         rdf:about="">
        <dc:format>image/svg+xml</dc:format>
        <dc:type
           rdf:resource="http://purl.org/dc/dcmitype/StillImage" />
        <dc:title></dc:title>
      </cc:Work>
    </rdf:RDF>
  </metadata>
  <g
     inkscape:label="Layer 1"
     inkscape:groupmode="layer"
     id="layer1"
     transform="translate(444.85902,-744.64729)">
    <path
       inkscape:connector-curvature="0"
       id="path5492-1"
       style="fill:#ffffff;fill-opacity:1;fill-rule:nonzero;stroke:none"
       d="m -400.85527,788.64854 -19.62375,-20.40375 c 0.24875,-0.36375 0.39875,-0.79625 0.45375,-1.25625 l 17.45625,-0.34 -17.45625,-0.34125 c -0.055,-0.46 -0.205,-0.89 -0.45375,-1.2575 l 19.62375,-20.4025 -20.40375,19.62 c -0.36875,-0.24375 -0.7975,-0.39625 -1.26125,-0.45 l -0.3375,-17.45875 -0.3425,17.45875 c -0.46,0.0538 -0.885,0.20375 -1.25375,0.45 l -20.405,-19.62 19.62,20.4025 c -0.2475,0.365 -0.39875,0.7975 -0.45375,1.2575 l -17.45375,0.34125 17.45375,0.34125 c 0.0562,0.45875 0.20625,0.89125 0.455,1.255 l -19.62125,20.40375 20.405,-19.61875 c 0.36375,0.245 0.79375,0.395 1.25375,0.45125 l 0.3425,17.45625 0.3375,-17.45625 c 0.46375,-0.0562 0.8925,-0.20625 1.26125,-0.4525 l 20.40375,19.62" />
  </g>
</svg>
